HIERARCHY
ROOT Hips
{
	OFFSET 0.000000 0.000000 0.000000
	CHANNELS 6 Xposition Yposition Zposition Zrotation Yrotation Xrotation 
	JOINT LHipJoint
	{
		OFFSET 0.000000 0.000000 0.000000
		CHANNELS 3 Zrotation Yrotation Xrotation
		JOINT LeftUpLeg
		{
			OFFSET 1.363060 -1.794630 0.839290
			CHANNELS 3 Zrotation Yrotation Xrotation
			JOINT LeftLeg
			{
				OFFSET 2.448110 -6.726130 0.000000
				CHANNELS 3 Zrotation Yrotation Xrotation
				JOINT LeftFoot
				{
					OFFSET 2.562200 -7.039590 0.000000
					CHANNELS 3 Zrotation Yrotation Xrotation
					JOINT LeftToeBase
					{
						OFFSET 0.157640 -0.433110 2.322550
						CHANNELS 3 Zrotation Yrotation Xrotation
						End Site
						{
							OFFSET 0.000000 0.000000 0.000000
						}
					}
				}
			}
		}
	}
	JOINT RHipJoint
	{
		OFFSET 0.000000 0.000000 0.000000
		CHANNELS 3 Zrotation Yrotation Xrotation
		JOINT RightUpLeg
		{
			OFFSET -1.305520 -1.794630 0.839290
			CHANNELS 3 Zrotation Yrotation Xrotation
			JOINT RightLeg
			{
				OFFSET -2.542530 -6.985550 0.000000
				CHANNELS 3 Zrotation Yrotation Xrotation
				JOINT RightFoot
				{
					OFFSET -2.568260 -7.056230 0.000000
					CHANNELS 3 Zrotation Yrotation Xrotation
					JOINT RightToeBase
					{
						OFFSET -0.164730 -0.452590 2.363150
						CHANNELS 3 Zrotation Yrotation Xrotation
						End Site
						{
							OFFSET 0.000000 0.000000 0.000000
						}
					}
				}
			}
		}
	}
	JOINT LowerBack
	{
		OFFSET 0.000000 0.000000 0.000000
		CHANNELS 3 Zrotation Yrotation Xrotation
		JOINT Spine
		{
			OFFSET 0.028270 2.035590 -0.193380
			CHANNELS 3 Zrotation Yrotation Xrotation
			JOINT Spine1
			{
				OFFSET 0.056720 2.048850 -0.042750
				CHANNELS 3 Zrotation Yrotation Xrotation
				JOINT Neck
				{
					OFFSET 0.000000 0.000000 0.000000
					CHANNELS 3 Zrotation Yrotation Xrotation
					JOINT Neck1
					{
						OFFSET -0.054170 1.746240 0.172020
						CHANNELS 3 Zrotation Yrotation Xrotation
						JOINT Head
						{
							OFFSET 0.104070 1.761360 -0.123970
							CHANNELS 3 Zrotation Yrotation Xrotation
							End Site
							{
								OFFSET 0.000000 0.000000 0.000000
							}
						}
					}
				}
				JOINT LeftShoulder
				{
					OFFSET 0.000000 0.000000 0.000000
					CHANNELS 3 Zrotation Yrotation Xrotation
					JOINT LeftArm
					{
						OFFSET 3.362410 1.200890 -0.311210
						CHANNELS 3 Zrotation Yrotation Xrotation
						JOINT LeftForeArm
						{
							OFFSET 4.983000 -0.000000 -0.000000
							CHANNELS 3 Zrotation Yrotation Xrotation
							JOINT LeftHand
							{
								OFFSET 3.483560 -0.000000 -0.000000
								CHANNELS 3 Zrotation Yrotation Xrotation
								JOINT LeftFingerBase
								{
									OFFSET 0.000000 0.000000 0.000000
									CHANNELS 3 Zrotation Yrotation Xrotation
									JOINT LeftHandIndex1
									{
										OFFSET 0.715260 -0.000000 -0.000000
										CHANNELS 3 Zrotation Yrotation Xrotation
										End Site
										{
											OFFSET 0.000000 0.000000 0.000000
										}
									}
								}
								JOINT LThumb
								{
									OFFSET 0.000000 0.000000 0.000000
									CHANNELS 3 Zrotation Yrotation Xrotation
									End Site
									{
										OFFSET 0.000000 0.000000 0.000000
									}
								}
							}
						}
					}
				}
				JOINT RightShoulder
				{
					OFFSET 0.000000 0.000000 0.000000
					CHANNELS 3 Zrotation Yrotation Xrotation
					JOINT RightArm
					{
						OFFSET -3.136600 1.374050 -0.404650
						CHANNELS 3 Zrotation Yrotation Xrotation
						JOINT RightForeArm
						{
							OFFSET -5.241900 -0.000000 -0.000000
							CHANNELS 3 Zrotation Yrotation Xrotation
							JOINT RightHand
							{
								OFFSET -3.444170 -0.000000 -0.000000
								CHANNELS 3 Zrotation Yrotation Xrotation
								JOINT RightFingerBase
								{
									OFFSET 0.000000 0.000000 0.000000
									CHANNELS 3 Zrotation Yrotation Xrotation
									JOINT RightHandIndex1
									{
										OFFSET -0.622530 -0.000000 -0.000000
										CHANNELS 3 Zrotation Yrotation Xrotation
										End Site
										{
											OFFSET 0.000000 0.000000 0.000000
										}
									}
								}
								JOINT RThumb
								{
									OFFSET 0.000000 0.000000 0.000000
									CHANNELS 3 Zrotation Yrotation Xrotation
									End Site
									{
										OFFSET 0.000000 0.000000 0.000000
									}
								}
							}
						}
					}
				}
			}
		}
	}
}
MOTION
Frames: 12
Frame Time: 0.008333
-2.077858 16.744739 -0.338802 9.200647 58.645042 30.498289 -7.603841 -0.524093 0.565267 -5.746220 -4.418209 -39.604099 -2.516648 0.337937 20.460260 0.201820 0.434440 -0.436002 0.284000 0.000000 -46.038300 12.537875 -0.608245 -2.007280 7.102218 0.984074 -25.778765 0.211995 -3.913774 54.421005 0.911981 11.172943 -2.992387 0.700800 -0.000000 -43.417300 -7.074245 1.074392 3.636973 -2.636843 1.440087 -2.444502 -7.125106 1.380262 0.183721 8.084676 -0.458742 1.753824 -4.015337 -0.392745 2.188490 0.000000 0.000000 0.000000 -5.406881 6.219665 2.527111 -68.014411 19.439329 9.654914 -3.698094 -16.329884 -0.012659 -3.795250 5.676648 -0.189370 -0.052307 -0.102482 0.000000 0.000000 0.000000 0.000000 0.000000 0.000000 0.000000 14.406515 2.677743 -3.515592 96.737500 26.729071 54.625216 0.554907 78.118216 0.017834 1.553694 13.964077 0.199272 0.002386 -0.577719 -0.000000 0.000000 0.000000 0.000000 0.000000 0.000000 0.000000 
-1.965832 16.656642 -0.295593 9.969808 57.878217 30.720907 -7.539821 -0.432474 0.236622 -6.966602 -3.600564 -40.281535 -2.525681 0.615320 23.803393 0.244373 0.507037 -1.468024 0.251400 -0.000000 -46.398900 12.839936 -0.554391 -2.255801 6.603039 -0.385528 -26.712772 -0.116711 -4.159484 57.395883 0.668482 9.119136 -2.434199 0.692300 0.000000 -46.859200 -7.608939 1.029329 4.125069 -2.755983 1.421183 -2.412134 -7.227241 1.362005 -0.043505 8.005427 -0.128361 1.884037 -4.110004 -0.399532 2.211484 0.000000 0.000000 0.000000 -5.698862 5.760189 2.603666 -67.578059 20.043931 11.121622 -3.670341 -16.927840 -0.012559 -3.945524 5.502414 -0.191389 -0.047958 -0.104929 0.000000 0.000000 0.000000 0.000000 0.000000 0.000000 0.000000 14.767539 3.036865 -3.491141 96.617224 26.605911 53.841342 0.534976 78.382597 0.016477 1.522625 14.300396 0.200758 -0.002897 -0.589119 -0.000000 0.000000 0.000000 0.000000 0.000000 0.000000 0.000000 
-1.858027 16.576082 -0.253185 10.664784 57.106161 30.831169 -7.474218 -0.349484 -0.116967 -8.142139 -2.763556 -40.737102 -2.523148 0.867488 26.919946 0.306733 0.696369 -2.684758 0.219300 -0.000000 -46.562000 13.116785 -0.483721 -2.516231 6.147212 -1.666411 -27.542767 -0.431136 -4.397376 60.226529 0.381531 6.757708 -2.052036 0.592400 0.000000 -47.872300 -8.086313 1.007122 4.679302 -2.864814 1.421025 -2.363886 -7.322249 1.362982 -0.263278 7.885318 0.246450 2.068168 -4.221012 -0.407403 2.244241 0.000000 0.000000 0.000000 -6.088708 5.265701 2.661899 -67.045177 20.381285 12.737807 -3.635636 -17.282667 -0.012276 -4.034753 5.300862 -0.189008 -0.043352 -0.106497 0.000000 0.000000 0.000000 0.000000 0.000000 0.000000 0.000000 15.161134 3.404835 -3.468667 96.402770 26.449979 52.897500 0.525821 78.394881 0.014642 1.456773 14.654471 0.197439 -0.008034 -0.597361 0.000000 0.000000 0.000000 0.000000 0.000000 0.000000 0.000000 
-1.753719 16.505449 -0.211660 11.278891 56.333916 30.828034 -7.407997 -0.273849 -0.481737 -9.235970 -1.946505 -40.924653 -2.515414 1.083619 29.695705 0.386456 0.986996 -4.038609 0.179000 0.000000 -46.583900 13.366640 -0.399131 -2.790492 5.738396 -2.861452 -28.256266 -0.724133 -4.627109 62.876190 0.053866 4.152073 -1.884592 0.410100 0.000000 -46.562400 -8.499238 1.009723 5.290324 -2.961516 1.441239 -2.298127 -7.404995 1.384898 -0.462065 7.728022 0.648447 2.302046 -4.345804 -0.416076 2.285553 0.000000 0.000000 0.000000 -6.554638 4.758498 2.699165 -66.447528 20.393392 14.462467 -3.594972 -17.340049 -0.011794 -4.053440 5.090903 -0.182720 -0.038696 -0.106875 0.000000 0.000000 0.000000 0.000000 0.000000 0.000000 0.000000 15.576624 3.758837 -3.451260 96.090822 26.256700 51.799887 0.527369 78.137920 0.012209 1.321104 15.017108 0.184118 -0.012083 -0.601835 -0.000000 0.000000 0.000000 0.000000 0.000000 0.000000 0.000000 
-1.652021 16.446588 -0.171007 11.806274 55.568169 30.712512 -7.344037 -0.203938 -0.845002 -10.221576 -1.174453 -40.821813 -2.508734 1.257610 32.053009 0.479431 1.352256 -5.472279 0.122100 0.000000 -46.517900 13.587423 -0.305554 -3.078830 5.382320 -3.979101 -28.849033 -0.988109 -4.848374 65.313442 -0.306399 1.393010 -1.983008 0.171000 -0.000000 -43.016300 -8.840275 1.037209 5.944746 -3.043926 1.481780 -2.214290 -7.470590 1.427759 -0.627865 7.539519 1.059620 2.578740 -4.480621 -0.425184 2.333831 0.000000 0.000000 0.000000 -7.072008 4.258562 2.714086 -65.825467 20.041426 16.241118 -3.549218 -17.066426 -0.011100 -3.992578 4.892355 -0.173327 -0.034182 -0.105744 0.000000 0.000000 0.000000 0.000000 0.000000 0.000000 0.000000 15.999131 4.077003 -3.441441 95.681745 26.021267 50.555823 0.538852 77.598550 0.009116 1.086016 15.374468 0.155597 -0.014263 -0.601974 -0.000000 0.000000 0.000000 0.000000 0.000000 0.000000 0.000000 
-1.551797 16.400737 -0.131152 12.238260 54.815922 30.487092 -7.286479 -0.138772 -1.195391 -11.078591 -0.463572 -40.428466 -2.507089 1.387455 33.948401 0.581154 1.766044 -6.920332 0.044700 0.000000 -46.406399 13.776230 -0.208446 -3.377037 5.086600 -5.021306 -29.321696 -1.219913 -5.057910 67.492057 -0.689926 -1.425662 -2.301455 -0.084000 -0.000000 -38.301600 -9.100523 1.088127 6.624344 -3.109510 1.541304 -2.112800 -7.514817 1.490242 -0.749664 7.327483 1.460879 2.887885 -4.620785 -0.434297 2.386895 0.000000 0.000000 0.000000 -7.614214 3.788931 2.705627 -65.222460 19.300775 18.018019 -3.498604 -16.447796 -0.010171 -3.840486 4.723030 -0.161024 -0.029934 -0.102788 0.000000 0.000000 0.000000 0.000000 0.000000 0.000000 0.000000 16.410783 4.338520 -3.441535 95.181905 25.739991 49.174916 0.558972 76.766972 0.005395 0.731823 15.707656 0.107975 -0.014062 -0.597272 -0.000000 0.000000 0.000000 0.000000 0.000000 0.000000 0.000000 
-1.451919 16.368416 -0.091941 12.565488 54.083464 30.155105 -7.240483 -0.077793 -1.522595 -11.791676 0.178153 -39.763773 -2.511575 1.474664 35.370794 0.687237 2.208132 -8.313951 -0.052700 0.000000 -46.280500 13.930019 -0.114880 -3.679452 4.860880 -5.988664 -29.683121 -1.415394 -5.253359 69.391327 -1.080112 -4.184162 -2.840311 -0.314100 -0.000000 -32.864500 -9.271330 1.159760 7.307984 -3.155688 1.617522 -1.995036 -7.534590 1.570041 -0.818339 7.101390 1.833251 3.216212 -4.760995 -0.442961 2.442109 0.000000 0.000000 0.000000 -8.155490 3.375689 2.672662 -64.680752 18.161362 19.731122 -3.443142 -15.489071 -0.008985 -3.582606 4.597506 -0.146309 -0.025993 -0.097730 0.000000 0.000000 0.000000 0.000000 0.000000 0.000000 0.000000 16.793043 4.525422 -3.453381 94.603316 25.412070 47.669096 0.586112 75.637242 0.001192 0.252178 15.993761 0.039355 -0.011311 -0.587348 0.000000 0.000000 0.000000 0.000000 0.000000 0.000000 0.000000 
-1.351320 16.349492 -0.053038 12.778356 53.375354 29.722754 -7.211113 -0.021195 -1.817992 -12.351309 0.747942 -38.864117 -2.520530 1.523224 36.336032 0.793858 2.667576 -9.585775 -0.164800 -0.000000 -46.164300 14.045774 -0.031199 -3.975898 4.715583 -6.870769 -29.946669 -1.575287 -5.429545 70.987743 -1.460621 -6.775701 -3.496112 -0.489700 0.000000 -27.772700 -9.344775 1.248444 7.971153 -3.180124 1.707503 -1.864614 -7.529135 1.664092 -0.831272 6.873020 2.162331 3.553048 -4.895713 -0.450797 2.497901 0.000000 0.000000 0.000000 -8.678092 3.026221 2.614217 -64.235129 16.654511 21.286804 -3.383517 -14.226726 -0.007551 -3.198465 4.527472 -0.128481 -0.022287 -0.090479 0.000000 0.000000 0.000000 0.000000 0.000000 0.000000 0.000000 17.130247 4.626174 -3.476219 93.960941 25.036201 46.046304 0.618575 74.206540 -0.003246 -0.342619 16.207170 -0.048769 -0.006271 -0.572026 -0.000000 0.000000 0.000000 0.000000 0.000000 0.000000 0.000000 
-1.249174 16.343186 -0.013969 12.872537 52.694033 29.201701 -7.202104 0.031189 -2.075547 -12.756277 1.248216 -37.777207 -2.530519 1.539112 36.884116 0.897733 3.140601 -10.677014 -0.283400 0.000000 -46.079400 14.122470 0.036630 -4.258031 4.659002 -7.662877 -30.133936 -1.699151 -5.583878 72.288027 -1.810449 -9.084887 -4.231986 -0.592800 0.000000 -23.397000 -9.319817 1.347969 8.592646 -3.181812 1.806098 -1.721390 -7.497130 1.767316 -0.773660 6.655328 2.429509 3.871466 -5.019479 -0.457275 2.548037 0.000000 0.000000 0.000000 -9.148713 2.826841 2.526423 -63.912444 14.724182 22.700840 -3.316788 -12.666415 -0.005876 -2.661930 4.507356 -0.106239 -0.018582 -0.080810 -0.000000 0.000000 0.000000 0.000000 0.000000 0.000000 0.000000 17.410767 4.629247 -3.515159 93.278896 24.628700 44.329217 0.655436 72.476105 -0.007557 -1.028226 16.323156 -0.151895 0.000670 -0.551248 0.000000 0.000000 0.000000 0.000000 0.000000 0.000000 0.000000 
-1.144869 16.348318 0.026021 12.850619 52.040781 28.608362 -7.216499 0.080019 -2.290708 -13.013310 1.686585 -36.557352 -2.537243 1.529131 37.070924 0.996065 3.627485 -11.540877 -0.399000 -0.000001 -46.048900 14.159980 0.083604 -4.515627 4.697428 -8.359062 -30.270080 -1.788469 -5.713415 73.302800 -2.110957 -11.018364 -4.980974 -0.622900 0.000000 -20.106500 -9.197608 1.453193 9.150153 -3.160578 1.909158 -1.572770 -7.443169 1.875231 -0.658511 6.464481 2.634611 4.171213 -5.127131 -0.462265 2.594172 0.000000 0.000000 0.000000 -9.569564 2.735205 2.409543 -63.720619 12.488420 23.823325 -3.245185 -10.913479 -0.004055 -1.937369 4.537007 -0.077585 -0.014546 -0.069274 -0.000000 0.000000 0.000000 0.000000 0.000000 0.000000 0.000000 17.631377 4.539380 -3.563120 92.572706 24.187361 42.513894 0.695633 70.452014 -0.011419 -1.764919 16.318524 -0.261927 0.008592 -0.525421 0.000000 0.000000 0.000000 0.000000 0.000000 0.000000 0.000000 
-1.038282 16.363382 0.067780 12.724425 51.414959 27.964947 -7.254868 0.126934 -2.462391 -13.138690 2.074833 -35.260152 -2.536886 1.500637 36.964476 1.086601 4.128607 -12.148758 -0.502300 0.000000 -46.096000 14.160797 0.106910 -4.741952 4.830039 -8.962699 -30.383425 -1.843331 -5.818073 74.056740 -2.344599 -12.492276 -5.740877 -0.581800 0.000000 -17.687900 -8.988110 1.556884 9.628585 -3.118107 2.010347 -1.422566 -7.371432 1.981385 -0.489565 6.316443 2.777781 4.441229 -5.214260 -0.465553 2.634570 0.000000 0.000000 0.000000 -9.930006 2.769763 2.263180 -63.655941 9.991412 24.612971 -3.167639 -9.050425 -0.002203 -0.985540 4.594006 -0.039827 -0.009741 -0.056488 0.000000 0.000000 0.000000 0.000000 0.000000 0.000000 0.000000 17.795060 4.364111 -3.617565 91.861176 23.724019 40.605097 0.739183 68.145603 -0.014519 -2.506198 16.178080 -0.369265 0.016660 -0.495139 -0.000000 0.000000 0.000000 0.000000 0.000000 0.000000 0.000000 
-0.929614 16.386727 0.112221 12.512601 50.815396 27.297424 -7.315847 0.174133 -2.592829 -13.155250 2.429170 -33.938926 -2.526957 1.460875 36.637695 1.167446 4.640225 -12.491004 -0.584600 -0.000000 -46.241401 14.129092 0.106634 -4.931354 5.049673 -9.477801 -30.500424 -1.864775 -5.898196 74.572123 -2.499375 -13.452046 -6.493311 -0.482000 0.000001 -16.002500 -8.706518 1.651131 10.018660 -3.057417 2.102310 -1.273891 -7.287492 2.078374 -0.271236 6.226046 2.862304 4.669706 -5.277710 -0.466996 2.667029 0.000000 0.000000 0.000000 -10.224656 2.954300 2.088207 -63.697985 7.273688 25.094126 -3.082293 -7.182546 -0.000481 0.221480 4.647250 0.009032 -0.003848 -0.043351 0.000000 0.000000 0.000000 0.000000 0.000000 0.000000 0.000000 17.911998 4.114838 -3.675672 91.160109 23.256630 38.608022 0.787037 65.573464 -0.016634 -3.207268 15.895983 -0.464110 0.024212 -0.461229 -0.000000 0.000000 0.000000 0.000000 0.000000 0.000000 0.000000 
